<svg width="512" height="512" viewBox="0 0 512 512" fill="none" xmlns="http://www.w3.org/2000/svg">
<rect width="512" height="512" fill="white"/>
<g filter="url(#filter0_d_6_35)">
<path d="M95.9941 318.25H105.287V356.345L104.334 364H95.9941V318.25ZM125.392 347.529V348.154C125.392 350.597 125.134 352.821 124.618 354.826C124.121 356.832 123.357 358.569 122.324 360.039C121.292 361.488 119.991 362.61 118.422 363.404C116.854 364.199 115.007 364.596 112.882 364.596C110.917 364.596 109.229 364.189 107.819 363.375C106.409 362.541 105.228 361.389 104.274 359.919C103.321 358.45 102.547 356.732 101.951 354.767C101.375 352.801 100.929 350.686 100.611 348.422V347.35C100.929 345.086 101.375 342.972 101.951 341.006C102.547 339.04 103.321 337.322 104.274 335.853C105.228 334.384 106.399 333.242 107.789 332.428C109.199 331.594 110.877 331.177 112.823 331.177C114.967 331.177 116.824 331.584 118.393 332.398C119.981 333.212 121.292 334.354 122.324 335.823C123.357 337.273 124.121 339 124.618 341.006C125.134 342.992 125.392 345.166 125.392 347.529ZM116.099 348.154V347.529C116.099 346.298 116.01 345.136 115.831 344.044C115.672 342.952 115.384 341.989 114.967 341.155C114.57 340.301 114.004 339.636 113.27 339.159C112.555 338.663 111.631 338.415 110.5 338.415C109.388 338.415 108.444 338.603 107.67 338.98C106.896 339.358 106.27 339.894 105.793 340.589C105.317 341.264 104.969 342.088 104.751 343.061C104.533 344.034 104.413 345.116 104.394 346.308V349.465C104.413 351.053 104.622 352.443 105.019 353.635C105.416 354.826 106.062 355.75 106.955 356.405C107.849 357.04 109.05 357.358 110.559 357.358C111.711 357.358 112.644 357.139 113.359 356.703C114.094 356.246 114.65 355.611 115.027 354.796C115.424 353.982 115.702 353.009 115.861 351.877C116.02 350.746 116.099 349.505 116.099 348.154ZM139.689 360.277L148.118 331.772H158.126L145.169 368.825C144.891 369.639 144.514 370.513 144.038 371.446C143.581 372.38 142.955 373.273 142.161 374.127C141.387 374.981 140.394 375.676 139.183 376.212C137.971 376.748 136.482 377.016 134.715 377.016C133.821 377.016 133.126 376.966 132.63 376.867C132.153 376.788 131.518 376.649 130.724 376.45L130.694 369.689C130.952 369.689 131.18 369.689 131.379 369.689C131.597 369.709 131.816 369.719 132.034 369.719C133.146 369.719 134.04 369.6 134.715 369.361C135.41 369.123 135.946 368.766 136.323 368.289C136.72 367.832 137.038 367.247 137.276 366.532L139.689 360.277ZM136.859 331.772L143.531 354.707L144.663 364.566L138.378 364.894L126.852 331.772H136.859ZM177.635 354.379L187.286 320.633H198.098L183.235 364H176.176L177.635 354.379ZM168.849 320.633L178.469 354.379L179.988 364H172.84L158.066 320.633H168.849ZM216.922 356.315V342.495C216.922 341.522 216.773 340.688 216.475 339.993C216.177 339.298 215.711 338.752 215.075 338.355C214.44 337.958 213.616 337.759 212.603 337.759C211.749 337.759 211.005 337.908 210.369 338.206C209.754 338.504 209.277 338.931 208.939 339.487C208.622 340.043 208.463 340.728 208.463 341.542H199.17C199.17 340.092 199.498 338.742 200.153 337.491C200.808 336.24 201.741 335.138 202.953 334.185C204.184 333.232 205.653 332.497 207.361 331.981C209.069 331.445 210.985 331.177 213.109 331.177C215.631 331.177 217.875 331.604 219.841 332.458C221.826 333.292 223.395 334.552 224.547 336.24C225.699 337.908 226.274 340.013 226.274 342.555V356.047C226.274 357.993 226.384 359.522 226.602 360.634C226.84 361.726 227.178 362.68 227.615 363.494V364H218.232C217.796 363.067 217.468 361.915 217.25 360.545C217.031 359.155 216.922 357.745 216.922 356.315ZM218.083 344.342L218.143 349.465H213.526C212.494 349.465 211.6 349.594 210.846 349.852C210.111 350.11 209.515 350.468 209.059 350.924C208.602 351.361 208.264 351.877 208.046 352.473C207.847 353.049 207.748 353.684 207.748 354.379C207.748 355.035 207.907 355.63 208.225 356.167C208.542 356.683 208.979 357.09 209.535 357.388C210.091 357.686 210.736 357.834 211.471 357.834C212.682 357.834 213.715 357.596 214.569 357.12C215.443 356.643 216.118 356.067 216.594 355.392C217.071 354.697 217.309 354.052 217.309 353.456L219.543 357.328C219.186 358.122 218.749 358.946 218.232 359.8C217.716 360.634 217.061 361.419 216.267 362.153C215.472 362.868 214.509 363.454 213.377 363.911C212.265 364.367 210.925 364.596 209.356 364.596C207.331 364.596 205.494 364.189 203.846 363.375C202.198 362.541 200.878 361.399 199.885 359.949C198.912 358.5 198.425 356.832 198.425 354.945C198.425 353.257 198.733 351.758 199.349 350.448C199.964 349.137 200.888 348.025 202.119 347.112C203.37 346.198 204.938 345.513 206.825 345.057C208.711 344.58 210.915 344.342 213.437 344.342H218.083ZM242.18 318.25V364H232.857V318.25H242.18ZM264.072 364.596C261.51 364.596 259.217 364.189 257.191 363.375C255.166 362.56 253.448 361.438 252.039 360.009C250.649 358.559 249.586 356.891 248.852 355.005C248.117 353.118 247.75 351.103 247.75 348.958V347.827C247.75 345.424 248.087 343.21 248.762 341.185C249.437 339.159 250.42 337.402 251.711 335.913C253.021 334.403 254.63 333.242 256.536 332.428C258.442 331.594 260.617 331.177 263.059 331.177C265.343 331.177 267.378 331.554 269.165 332.309C270.952 333.043 272.461 334.106 273.692 335.496C274.924 336.866 275.857 338.524 276.492 340.47C277.147 342.396 277.475 344.56 277.475 346.963V350.775H251.502V344.789H268.361V344.074C268.361 342.942 268.152 341.949 267.735 341.095C267.338 340.241 266.743 339.586 265.948 339.129C265.174 338.653 264.191 338.415 263 338.415C261.868 338.415 260.924 338.653 260.17 339.129C259.415 339.606 258.81 340.281 258.353 341.155C257.916 342.009 257.598 343.011 257.4 344.163C257.201 345.295 257.102 346.516 257.102 347.827V348.958C257.102 350.209 257.271 351.351 257.608 352.384C257.946 353.416 258.442 354.3 259.098 355.035C259.753 355.769 260.547 356.345 261.48 356.762C262.414 357.179 263.476 357.388 264.667 357.388C266.137 357.388 267.537 357.11 268.867 356.554C270.198 355.978 271.349 355.084 272.322 353.873L276.671 358.847C276.016 359.8 275.092 360.724 273.901 361.617C272.729 362.491 271.319 363.206 269.671 363.762C268.023 364.318 266.157 364.596 264.072 364.596ZM291.117 338.653V364H281.794V331.772H290.551L291.117 338.653ZM289.896 346.754L287.572 346.814C287.572 344.391 287.87 342.217 288.466 340.291C289.062 338.365 289.905 336.727 290.998 335.376C292.11 334.006 293.43 332.964 294.959 332.249C296.508 331.534 298.215 331.177 300.082 331.177C301.591 331.177 302.971 331.395 304.222 331.832C305.473 332.269 306.545 332.974 307.439 333.947C308.352 334.9 309.047 336.171 309.524 337.759C310 339.328 310.239 341.264 310.239 343.567V364H300.886V343.538C300.886 342.187 300.698 341.145 300.32 340.41C299.943 339.675 299.387 339.159 298.652 338.861C297.938 338.563 297.064 338.415 296.031 338.415C294.939 338.415 294.006 338.633 293.231 339.07C292.457 339.487 291.822 340.073 291.325 340.827C290.829 341.582 290.461 342.465 290.223 343.478C290.005 344.491 289.896 345.583 289.896 346.754ZM332.697 331.772V338.295H313.575V331.772H332.697ZM317.953 323.79H327.276V353.903C327.276 354.796 327.385 355.481 327.604 355.958C327.822 356.435 328.179 356.772 328.676 356.971C329.172 357.149 329.808 357.239 330.582 357.239C331.138 357.239 331.615 357.219 332.012 357.179C332.409 357.139 332.776 357.09 333.114 357.03V363.762C332.319 364.02 331.476 364.218 330.582 364.357C329.688 364.516 328.715 364.596 327.663 364.596C325.658 364.596 323.92 364.268 322.451 363.613C321.001 362.958 319.889 361.925 319.115 360.515C318.34 359.085 317.953 357.229 317.953 354.945V323.79ZM346.964 331.772V364H337.641V331.772H346.964ZM337.075 323.433C337.075 322.082 337.552 320.98 338.505 320.126C339.458 319.253 340.709 318.816 342.258 318.816C343.807 318.816 345.058 319.253 346.011 320.126C346.984 320.98 347.47 322.082 347.47 323.433C347.47 324.763 346.984 325.865 346.011 326.739C345.058 327.593 343.807 328.02 342.258 328.02C340.709 328.02 339.458 327.593 338.505 326.739C337.552 325.865 337.075 324.763 337.075 323.433ZM362.78 338.653V364H353.457V331.772H362.214L362.78 338.653ZM361.559 346.754L359.235 346.814C359.235 344.391 359.533 342.217 360.129 340.291C360.725 338.365 361.569 336.727 362.661 335.376C363.773 334.006 365.093 332.964 366.622 332.249C368.171 331.534 369.879 331.177 371.745 331.177C373.254 331.177 374.634 331.395 375.885 331.832C377.136 332.269 378.208 332.974 379.102 333.947C380.015 334.9 380.71 336.171 381.187 337.759C381.664 339.328 381.902 341.264 381.902 343.567V364H372.549V343.538C372.549 342.187 372.361 341.145 371.983 340.41C371.606 339.675 371.05 339.159 370.315 338.861C369.601 338.563 368.727 338.415 367.694 338.415C366.602 338.415 365.669 338.633 364.895 339.07C364.12 339.487 363.485 340.073 362.988 340.827C362.492 341.582 362.125 342.465 361.886 343.478C361.668 344.491 361.559 345.583 361.559 346.754ZM417.942 356.494V364H394.858V356.494H417.942ZM398.165 320.633V364H388.455V320.633H398.165ZM414.963 338.087V345.354H394.858V338.087H414.963ZM417.972 320.633V328.168H394.858V320.633H417.972Z" fill="#3E3F41"/>
<path d="M120.674 195.619V215.937H61.1133V195.619H120.674ZM74.751 170.756H103.789V264.55C103.789 267.333 104.129 269.467 104.81 270.951C105.49 272.436 106.603 273.487 108.149 274.105C109.696 274.662 111.675 274.94 114.087 274.94C115.819 274.94 117.303 274.879 118.54 274.755C119.777 274.631 120.921 274.477 121.973 274.291V295.258C119.499 296.062 116.87 296.68 114.087 297.113C111.304 297.608 108.273 297.855 104.995 297.855C98.7484 297.855 93.3366 296.835 88.7598 294.794C84.2448 292.753 80.7812 289.537 78.3691 285.146C75.957 280.692 74.751 274.91 74.751 267.797V170.756ZM127.817 246.83V244.882C127.817 237.522 128.869 230.749 130.972 224.564C133.075 218.318 136.167 212.906 140.249 208.329C144.331 203.752 149.341 200.196 155.278 197.66C161.216 195.062 168.019 193.764 175.688 193.764C183.481 193.764 190.347 195.062 196.284 197.66C202.284 200.196 207.324 203.752 211.406 208.329C215.488 212.906 218.581 218.318 220.684 224.564C222.786 230.749 223.838 237.522 223.838 244.882V246.83C223.838 254.128 222.786 260.901 220.684 267.147C218.581 273.332 215.488 278.744 211.406 283.383C207.324 287.96 202.314 291.516 196.377 294.052C190.439 296.588 183.605 297.855 175.874 297.855C168.205 297.855 161.37 296.588 155.371 294.052C149.372 291.516 144.331 287.96 140.249 283.383C136.167 278.744 133.075 273.332 130.972 267.147C128.869 260.901 127.817 254.128 127.817 246.83ZM156.855 244.882V246.83C156.855 250.788 157.165 254.499 157.783 257.963C158.464 261.426 159.546 264.457 161.03 267.055C162.515 269.652 164.463 271.693 166.875 273.178C169.349 274.6 172.349 275.312 175.874 275.312C179.399 275.312 182.368 274.6 184.78 273.178C187.192 271.693 189.141 269.652 190.625 267.055C192.109 264.457 193.161 261.426 193.779 257.963C194.46 254.499 194.8 250.788 194.8 246.83V244.882C194.8 240.985 194.46 237.336 193.779 233.935C193.161 230.471 192.109 227.41 190.625 224.75C189.141 222.09 187.161 220.019 184.688 218.534C182.275 217.05 179.276 216.308 175.688 216.308C172.225 216.308 169.287 217.05 166.875 218.534C164.463 220.019 162.515 222.09 161.03 224.75C159.546 227.41 158.464 230.471 157.783 233.935C157.165 237.336 156.855 240.985 156.855 244.882Z" fill="#476CEE"/>
<path d="M297.096 273.549V153.5H326.227V296H300.064L297.096 273.549ZM234.566 247.016V245.067C234.566 237.46 235.401 230.533 237.071 224.286C238.803 217.978 241.308 212.566 244.586 208.051C247.926 203.474 252.039 199.949 256.925 197.475C261.811 195.001 267.408 193.764 273.717 193.764C279.531 193.764 284.602 195.062 288.932 197.66C293.261 200.196 296.941 203.783 299.972 208.422C303.064 212.999 305.569 218.41 307.486 224.657C309.404 230.842 310.857 237.553 311.847 244.789V248.129C310.919 255.056 309.465 261.519 307.486 267.519C305.569 273.518 303.064 278.806 299.972 283.383C296.941 287.898 293.23 291.454 288.839 294.052C284.509 296.588 279.407 297.855 273.531 297.855C267.223 297.855 261.625 296.588 256.739 294.052C251.915 291.516 247.864 287.96 244.586 283.383C241.308 278.806 238.803 273.425 237.071 267.24C235.401 261.055 234.566 254.314 234.566 247.016ZM263.512 245.067V247.016C263.512 250.974 263.79 254.654 264.347 258.056C264.965 261.457 265.955 264.457 267.315 267.055C268.676 269.652 270.47 271.693 272.696 273.178C274.923 274.6 277.644 275.312 280.86 275.312C285.19 275.312 288.746 274.322 291.529 272.343C294.312 270.302 296.415 267.488 297.838 263.9C299.26 260.313 300.003 256.138 300.064 251.376V241.635C300.064 237.676 299.662 234.12 298.858 230.966C298.054 227.812 296.848 225.152 295.24 222.987C293.694 220.823 291.746 219.184 289.396 218.07C287.045 216.895 284.262 216.308 281.046 216.308C277.892 216.308 275.201 217.05 272.975 218.534C270.748 219.957 268.924 221.967 267.501 224.564C266.14 227.162 265.12 230.224 264.439 233.749C263.821 237.213 263.512 240.985 263.512 245.067ZM341.349 246.83V244.882C341.349 237.522 342.4 230.749 344.503 224.564C346.606 218.318 349.698 212.906 353.78 208.329C357.862 203.752 362.872 200.196 368.81 197.66C374.747 195.062 381.55 193.764 389.22 193.764C397.013 193.764 403.878 195.062 409.815 197.66C415.815 200.196 420.855 203.752 424.938 208.329C429.02 212.906 432.112 218.318 434.215 224.564C436.318 230.749 437.369 237.522 437.369 244.882V246.83C437.369 254.128 436.318 260.901 434.215 267.147C432.112 273.332 429.02 278.744 424.938 283.383C420.855 287.96 415.846 291.516 409.908 294.052C403.971 296.588 397.136 297.855 389.405 297.855C381.736 297.855 374.902 296.588 368.902 294.052C362.903 291.516 357.862 287.96 353.78 283.383C349.698 278.744 346.606 273.332 344.503 267.147C342.4 260.901 341.349 254.128 341.349 246.83ZM370.387 244.882V246.83C370.387 250.788 370.696 254.499 371.314 257.963C371.995 261.426 373.077 264.457 374.562 267.055C376.046 269.652 377.994 271.693 380.406 273.178C382.88 274.6 385.88 275.312 389.405 275.312C392.931 275.312 395.899 274.6 398.312 273.178C400.724 271.693 402.672 269.652 404.156 267.055C405.641 264.457 406.692 261.426 407.311 257.963C407.991 254.499 408.331 250.788 408.331 246.83V244.882C408.331 240.985 407.991 237.336 407.311 233.935C406.692 230.471 405.641 227.41 404.156 224.75C402.672 222.09 400.693 220.019 398.219 218.534C395.807 217.05 392.807 216.308 389.22 216.308C385.756 216.308 382.818 217.05 380.406 218.534C377.994 220.019 376.046 222.09 374.562 224.75C373.077 227.41 371.995 230.471 371.314 233.935C370.696 237.336 370.387 240.985 370.387 244.882Z" fill="#1D1D20"/>
</g>
<defs>
<filter id="filter0_d_6_35" x="61.1133" y="153.5" width="388.256" height="235.516" filterUnits="userSpaceOnUse" color-interpolation-filters="sRGB">
<feFlood flood-opacity="0" result="BackgroundImageFix"/>
<feColorMatrix in="SourceAlpha" type="matrix" values="0 0 0 0 0 0 0 0 0 0 0 0 0 0 0 0 0 0 127 0" result="hardAlpha"/>
<feOffset dx="8" dy="8"/>
<feGaussianBlur stdDeviation="2"/>
<feComposite in2="hardAlpha" operator="out"/>
<feColorMatrix type="matrix" values="0 0 0 0 0 0 0 0 0 0 0 0 0 0 0 0 0 0 0.12 0"/>
<feBlend mode="normal" in2="BackgroundImageFix" result="effect1_dropShadow_6_35"/>
<feBlend mode="normal" in="SourceGraphic" in2="effect1_dropShadow_6_35" result="shape"/>
</filter>
</defs>
</svg>
